<?xml version="1.0" standalone="no"?>
<!DOCTYPE svg PUBLIC "-//W3C//DTD SVG 20010904//EN"
 "http://www.w3.org/TR/2001/REC-SVG-20010904/DTD/svg10.dtd">
<svg version="1.0" xmlns="http://www.w3.org/2000/svg"
 width="1212.000000pt" height="1212.000000pt" viewBox="0 0 1212.000000 1212.000000"
 preserveAspectRatio="xMidYMid meet">
<metadata>
Created by potrace 1.11, written by Peter Selinger 2001-2013
</metadata>
<g transform="translate(0.000000,1212.000000) scale(0.100000,-0.100000)"
fill="#000000" stroke="none">
<path d="M12070 11533 c0 -5 -12 -8 -27 -7 -16 1 -38 -5 -50 -12 -13 -8 -23
-12 -23 -10 0 9 -50 -45 -53 -57 -1 -6 -8 -18 -15 -26 -7 -7 -11 -20 -8 -27 3
-8 1 -14 -3 -14 -5 0 -7 -9 -4 -20 5 -18 0 -20 -51 -20 -44 0 -56 -3 -56 -15
0 -9 -8 -32 -19 -53 -10 -20 -24 -60 -31 -89 -12 -52 -43 -89 -140 -162 -17
-13 -44 -50 -61 -83 -19 -38 -42 -66 -63 -79 -43 -25 -57 -57 -65 -149 -7 -79
-23 -110 -130 -252 -35 -47 -36 -48 -92 -48 -109 0 -276 -108 -403 -260 -33
-39 -73 -78 -88 -86 -39 -20 -68 -71 -68 -118 0 -21 -9 -53 -20 -71 -17 -27
-28 -34 -63 -38 -43 -5 -110 -22 -161 -40 -42 -15 -66 -62 -66 -129 0 -53 -2
-59 -28 -72 -35 -18 -52 -54 -52 -111 0 -45 0 -45 -35 -45 -47 0 -88 -22 -103
-55 -7 -14 -12 -62 -12 -106 0 -88 16 -133 51 -144 16 -5 19 -12 14 -28 -13
-42 -18 -253 -6 -275 9 -18 7 -24 -21 -43 -30 -22 -42 -23 -207 -24 -138 -1
-185 -5 -216 -18 -22 -9 -63 -16 -91 -17 -32 0 -72 -9 -107 -24 -115 -51 -161
-59 -332 -57 -88 1 -167 4 -175 6 -8 3 -28 23 -43 45 -32 45 -91 80 -134 80
-15 0 -55 13 -88 30 -53 27 -115 53 -225 96 -20 7 -75 13 -130 14 -84 0 -102
-3 -156 -29 -58 -27 -65 -28 -140 -20 -43 4 -108 17 -142 29 -42 13 -91 20
-143 20 -62 0 -81 3 -86 15 -11 31 -59 45 -148 45 -90 0 -132 -13 -157 -49
-15 -22 -103 -30 -315 -30 -113 1 -153 -9 -182 -45 -24 -29 -89 -37 -301 -36
-165 0 -219 -4 -247 -15 -19 -8 -47 -15 -61 -15 -14 0 -49 -13 -79 -30 -46
-26 -63 -30 -129 -30 -72 0 -82 -3 -161 -46 -108 -59 -123 -82 -123 -186 l0
-78 -50 -25 c-66 -33 -80 -63 -80 -167 0 -92 19 -139 64 -159 31 -15 38 -50
30 -166 -7 -90 -8 -93 -38 -111 -21 -13 -47 -49 -80 -110 -57 -106 -104 -157
-135 -147 -11 3 -43 23 -69 44 -62 50 -104 71 -139 71 -15 0 -46 12 -68 25
-39 24 -45 25 -233 25 -213 0 -239 -6 -267 -59 -16 -32 -35 -171 -35 -266 0
-37 -8 -76 -19 -101 -10 -23 -22 -65 -26 -95 -4 -30 -21 -83 -38 -119 -31 -62
-32 -69 -32 -195 0 -71 6 -154 13 -183 7 -30 12 -124 12 -221 0 -191 6 -177
-97 -231 -34 -18 -86 -58 -118 -91 -31 -32 -61 -59 -66 -59 -17 0 -49 -65 -49
-100 -1 -19 -6 -47 -13 -62 -14 -31 -98 -98 -169 -134 -27 -13 -48 -28 -48
-33 0 -18 -32 -41 -56 -41 -75 0 -124 -63 -124 -160 -1 -109 -16 -188 -44
-225 -26 -34 -26 -34 -129 -39 -278 -14 -311 -19 -356 -50 -39 -28 -71 -70
-71 -96 0 -6 -26 -35 -58 -65 l-57 -54 -77 -1 c-94 0 -153 -21 -173 -61 -18
-34 -20 -186 -4 -222 9 -19 7 -32 -10 -65 -16 -32 -21 -60 -21 -121 0 -44 5
-91 11 -105 9 -19 8 -35 -6 -75 l-17 -51 -49 0 c-56 0 -105 -21 -113 -47 -5
-17 -42 -38 -129 -76 -26 -12 -42 -28 -52 -52 -8 -19 -22 -52 -31 -72 -11 -27
-15 -63 -13 -137 l3 -100 -35 -21 c-19 -12 -40 -34 -48 -49 -13 -24 -60 -46
-99 -46 -53 0 -111 -77 -112 -147 0 -53 -17 -81 -62 -104 -50 -25 -99 -62
-182 -136 l-59 -53 -94 0 c-107 0 -144 -13 -168 -60 -8 -16 -15 -43 -15 -59
l0 -30 -35 15 c-47 19 -243 19 -331 -2 -78 -18 -110 -33 -179 -84 -27 -21 -67
-43 -88 -50 -45 -14 -98 -58 -127 -105 -18 -29 -27 -34 -78 -40 -31 -4 -71
-14 -88 -23 -40 -22 -107 -99 -123 -143 -7 -19 -17 -41 -22 -49 -43 -72 -49
-91 -49 -167 1 -49 6 -87 15 -103 21 -36 18 -62 -10 -111 -21 -37 -25 -57 -25
-129 0 -81 2 -88 36 -143 21 -31 41 -57 45 -57 5 0 20 -18 34 -40 41 -65 75
-80 183 -80 73 0 101 4 132 20 22 11 53 20 69 20 17 0 48 6 68 14 21 8 65 20
98 27 102 20 161 47 210 96 65 67 105 151 105 225 l0 59 29 -15 c15 -8 34 -29
41 -46 18 -44 56 -60 144 -60 64 0 81 -4 112 -25 29 -20 49 -25 98 -25 l62 0
49 -77 c28 -42 55 -93 62 -112 7 -20 19 -41 28 -47 11 -8 15 -30 15 -80 0 -55
5 -78 25 -113 14 -23 25 -49 25 -57 0 -8 11 -37 25 -65 20 -38 36 -55 70 -71
28 -14 48 -32 56 -50 18 -44 55 -58 159 -58 89 0 92 1 161 42 43 26 71 49 74
62 2 12 6 40 9 63 4 23 11 54 18 68 11 24 15 25 100 25 135 0 198 42 198 133
0 28 5 36 35 50 97 46 132 344 51 437 -8 8 -16 29 -19 45 -4 17 -9 44 -12 60
l-7 30 87 -3 c108 -4 126 0 173 42 20 18 47 38 60 45 29 16 68 95 77 156 12
87 10 85 71 85 74 0 109 20 139 79 25 51 77 101 83 82 9 -27 63 -41 159 -41
113 0 151 16 172 71 7 19 17 41 22 49 5 8 16 31 26 50 9 19 27 56 39 81 20 38
24 62 24 132 0 66 3 86 15 91 8 3 22 20 31 38 l15 33 103 -3 c81 -3 110 0 135
12 17 9 31 21 31 26 0 6 80 10 210 10 194 0 214 2 252 21 25 13 69 23 114 26
42 3 83 13 97 22 14 9 43 28 65 43 25 17 45 41 53 63 l13 35 139 0 c77 0 157
-5 178 -11 21 -7 68 -35 105 -63 52 -40 70 -60 76 -86 26 -104 49 -120 170
-120 65 0 90 4 116 20 18 11 43 20 57 20 13 0 35 5 49 11 20 9 33 8 66 -5 22
-9 51 -16 65 -16 15 0 31 -10 41 -26 10 -14 54 -44 98 -66 74 -38 89 -42 174
-46 71 -3 103 -1 137 13 61 23 190 12 258 -21 l47 -24 0 -73 c0 -90 14 -115
110 -193 154 -127 198 -146 335 -143 67 1 99 -3 123 -15 22 -11 58 -16 126
-16 l95 0 65 45 c37 25 71 45 76 45 5 0 28 7 50 16 57 23 80 71 80 164 0 44 6
82 15 100 8 16 29 68 46 115 17 48 43 100 56 116 14 16 58 45 99 64 41 19 87
43 102 55 43 34 94 68 134 90 45 24 68 65 68 118 0 25 6 45 17 53 9 8 25 32
35 54 11 22 30 55 44 74 21 30 24 45 24 123 0 124 -27 166 -108 169 -15 0 -20
3 -12 5 103 34 120 59 120 174 0 88 -6 105 -57 165 -30 35 -34 45 -28 79 3 21
32 86 65 145 33 59 60 118 60 131 0 17 21 46 64 90 l63 65 97 -3 c117 -5 150
6 176 58 24 46 36 56 85 65 88 16 140 59 171 143 47 128 178 175 487 173 140
-1 174 8 194 52 12 25 15 25 140 29 119 3 133 6 206 37 43 18 112 55 153 82
l76 50 136 -34 c152 -38 261 -80 343 -132 30 -19 97 -56 149 -81 52 -26 127
-67 165 -92 78 -50 360 -276 445 -358 60 -57 88 -74 119 -74 21 0 21 4 20 213
l0 212 -136 110 c-162 132 -237 182 -363 244 -52 25 -109 56 -125 67 -42 30
-208 112 -285 141 -36 14 -139 42 -230 64 -134 32 -184 39 -265 39 -114 0
-152 -13 -265 -92 -107 -76 -127 -81 -271 -79 -150 3 -200 -8 -247 -55 -31
-31 -39 -34 -96 -34 -99 0 -320 -29 -382 -50 -122 -42 -202 -112 -244 -213
-21 -51 -27 -57 -59 -63 -40 -7 -101 -36 -142 -66 -26 -19 -26 -19 -60 1 -72
44 -174 16 -223 -61 -16 -26 -40 -52 -53 -59 -14 -7 -33 -29 -43 -49 -10 -19
-28 -44 -40 -55 -26 -23 -59 -90 -60 -120 0 -12 -25 -66 -55 -120 -72 -130
-94 -215 -95 -361 0 -59 -1 -62 -30 -74 -35 -14 -94 -84 -116 -135 -11 -27
-15 -69 -13 -154 1 -91 -2 -125 -15 -149 -20 -39 -20 -84 -1 -122 26 -50 99
-75 146 -50 15 8 19 7 19 -4 0 -8 -20 -24 -44 -35 -24 -10 -49 -28 -55 -40 -6
-11 -30 -30 -54 -41 -84 -41 -157 -86 -188 -115 -35 -34 -84 -127 -122 -230
-14 -38 -35 -90 -46 -115 -11 -25 -21 -66 -21 -91 0 -40 -4 -47 -26 -58 -32
-14 -39 -9 -25 17 27 51 2 130 -49 157 -88 46 -182 -16 -167 -109 4 -25 1 -36
-10 -40 -32 -13 -66 -5 -109 26 l-44 33 5 60 c3 33 8 100 11 148 10 147 -16
177 -154 177 -68 0 -84 -4 -116 -25 -44 -30 -52 -31 -65 -6 -20 37 -63 44
-214 37 -78 -4 -160 -11 -182 -16 -34 -8 -42 -6 -55 10 -17 21 -122 70 -151
70 -17 0 -19 8 -19 80 0 141 -29 166 -204 182 -153 14 -266 6 -311 -21 -31
-18 -37 -19 -42 -6 -15 39 -97 56 -143 30 -20 -11 -84 -14 -325 -15 -292 0
-301 -1 -340 -23 -22 -12 -52 -41 -68 -65 -25 -37 -33 -42 -65 -42 -20 0 -52
-9 -71 -21 -19 -11 -48 -20 -65 -19 -80 3 -247 1 -302 -5 -57 -6 -61 -5 -72
19 -20 44 -79 66 -177 66 -72 0 -93 -4 -134 -25 -27 -14 -66 -29 -87 -32 -47
-7 -102 -34 -126 -60 -28 -30 -48 -89 -48 -137 0 -25 -5 -48 -11 -52 -6 -3
-22 -30 -35 -58 -20 -43 -24 -67 -24 -148 l0 -98 -90 0 c-72 0 -99 -4 -131
-20 -45 -24 -144 -97 -173 -129 -14 -16 -31 -21 -68 -21 -100 0 -179 -72 -198
-180 l-6 -35 -59 4 c-33 2 -71 5 -85 6 -14 1 -47 -9 -75 -21 -27 -12 -65 -28
-83 -35 -42 -15 -62 -54 -62 -118 0 -39 -4 -53 -19 -60 -21 -12 -51 -79 -51
-116 0 -19 -7 -26 -27 -31 -94 -20 -113 -47 -113 -159 0 -113 30 -154 113
-155 43 -1 63 -18 69 -61 5 -27 2 -38 -12 -46 -9 -7 -26 -32 -36 -57 l-19 -46
-65 0 c-79 0 -129 -25 -176 -87 -38 -49 -44 -42 -44 47 0 65 -34 152 -89 230
-17 25 -48 70 -69 100 -91 137 -147 180 -236 180 -25 0 -48 5 -51 10 -15 25
-106 60 -157 61 -41 0 -63 7 -98 30 -25 16 -72 42 -105 59 -58 29 -64 30 -203
30 -156 0 -201 -12 -235 -64 -9 -13 -26 -27 -37 -31 -39 -12 -52 -58 -49 -170
2 -72 -1 -108 -10 -119 -11 -13 -45 -22 -188 -52 -22 -4 -23 -2 -23 81 0 67
-5 95 -21 127 -19 36 -19 44 -7 85 17 59 44 82 104 89 82 9 122 32 159 90 26
41 45 57 89 77 31 14 81 44 112 66 l56 40 25 -30 c43 -51 71 -59 195 -59 97 0
120 3 163 24 58 26 112 82 139 144 19 42 19 42 74 42 71 0 141 37 247 130 43
38 104 83 135 99 30 16 65 40 77 53 29 31 73 127 73 161 0 19 5 27 18 27 30 0
122 51 139 77 9 14 34 36 56 50 61 38 89 111 96 245 3 58 8 108 11 110 35 27
73 41 124 45 117 11 179 67 237 216 28 72 33 98 39 217 4 90 14 160 28 210 12
41 22 78 22 83 0 4 11 7 25 7 13 0 59 18 102 39 43 22 103 50 134 64 54 24 61
32 83 99 3 10 13 18 23 18 10 0 47 16 83 35 59 32 71 35 150 35 137 0 213 48
276 172 26 51 41 114 51 213 5 51 5 51 54 68 34 13 53 26 64 47 9 17 32 38 53
49 21 10 66 41 101 67 53 40 69 59 97 118 19 39 34 77 34 86 0 30 107 135 172
170 76 39 113 73 139 122 16 32 19 69 25 316 5 200 3 304 -6 366 -12 87 -12
88 13 114 39 42 47 66 47 135 0 36 7 81 15 100 8 20 15 60 15 89 0 29 3 83 6
119 l7 67 51 -24 c28 -13 61 -24 74 -24 13 0 46 -18 75 -40 29 -21 79 -51 110
-65 53 -23 69 -25 205 -25 139 0 151 2 200 26 64 32 138 112 182 196 28 55 40
67 77 82 50 21 73 56 73 111 0 20 9 53 19 73 10 21 27 75 37 120 14 68 15 89
6 116 -7 18 -12 70 -12 117 0 66 5 97 25 144 19 47 25 78 25 143 l0 82 87 0
c78 0 92 3 140 30 58 33 86 36 123 15 36 -21 181 -20 223 1 18 9 39 22 47 29
9 8 58 14 130 17 88 3 123 9 150 24 40 21 190 35 378 33 97 -1 117 2 148 20
47 28 101 27 204 -4 46 -14 104 -25 129 -25 30 0 63 -9 93 -25 40 -21 60 -25
135 -25 80 0 95 3 160 34 l71 34 69 -28 c37 -16 90 -40 117 -54 27 -14 64 -28
83 -32 22 -4 43 -18 59 -40 14 -18 49 -45 77 -58 50 -24 62 -25 332 -32 321
-8 385 -1 516 51 56 23 104 35 135 35 27 1 67 7 89 15 53 19 91 19 142 -2 28
-12 47 -28 54 -46 19 -46 59 -60 163 -55 123 6 182 35 213 105 12 26 35 79 52
117 30 65 31 74 31 200 0 130 -1 133 -30 180 -29 46 -30 50 -20 104 9 51 29
82 52 82 19 0 48 81 48 133 0 52 2 55 31 67 47 20 69 64 69 138 l0 62 38 0
c82 0 203 123 219 222 3 21 13 43 23 48 9 5 36 34 59 65 53 70 141 157 201
198 36 26 59 33 115 38 78 7 175 40 190 65 6 10 40 64 77 120 97 149 118 194
118 254 0 45 4 54 33 80 19 16 48 56 66 90 18 34 44 66 59 74 37 20 116 103
138 146 10 19 27 69 39 110 17 63 26 78 53 95 l32 20 -3 185 c-1 115 -6 185
-12 185 -5 0 -16 4 -22 8 -7 5 -13 4 -13 0z"/>
</g>
</svg>
