<?xml version="1.0" standalone="no"?>
<!DOCTYPE svg PUBLIC "-//W3C//DTD SVG 20010904//EN"
 "http://www.w3.org/TR/2001/REC-SVG-20010904/DTD/svg10.dtd">
<svg version="1.0" xmlns="http://www.w3.org/2000/svg"
 width="1350.000000pt" height="1350.000000pt" viewBox="0 0 1350.000000 1350.000000"
 preserveAspectRatio="xMidYMid meet">
<metadata>
Created by potrace 1.11, written by Peter Selinger 2001-2013
</metadata>
<g transform="translate(0.000000,1350.000000) scale(0.100000,-0.100000)"
fill="#000000" stroke="none">
<path d="M11880 11704 c0 -26 -9 -65 -19 -88 -11 -23 -27 -68 -36 -101 -14
-50 -26 -69 -74 -115 -32 -30 -69 -63 -84 -73 -15 -10 -38 -42 -52 -72 -24
-49 -66 -97 -96 -107 -7 -2 -14 -35 -16 -78 -3 -41 -12 -88 -21 -105 -21 -42
-129 -202 -142 -210 -5 -3 -10 -14 -10 -23 0 -22 -62 -42 -127 -42 -105 -1
-260 -111 -383 -274 -23 -31 -50 -56 -59 -56 -27 0 -41 -21 -41 -63 0 -45 -19
-90 -59 -137 -23 -28 -37 -35 -82 -41 -30 -4 -74 -13 -99 -20 -25 -6 -51 -13
-57 -15 -19 -5 -17 -118 2 -134 8 -7 15 -21 15 -31 0 -15 -8 -19 -39 -19 -65
0 -71 -6 -71 -67 0 -30 7 -67 15 -83 l16 -30 -91 0 -90 0 0 -58 0 -59 40 -18
40 -18 -6 -51 c-3 -28 -10 -69 -15 -91 -12 -57 -11 -163 2 -188 7 -12 23 -35
35 -50 13 -16 24 -39 24 -53 0 -22 -4 -24 -42 -24 -32 0 -52 -8 -92 -38 l-51
-39 -90 10 c-109 11 -245 3 -300 -17 -22 -8 -62 -15 -89 -16 -31 0 -79 -12
-135 -34 -117 -47 -179 -55 -372 -49 -189 6 -211 13 -258 78 -32 44 -41 49
-114 59 -20 3 -50 14 -67 26 -16 11 -53 29 -83 39 -29 10 -73 29 -97 41 -32
17 -68 25 -125 28 -77 4 -83 3 -149 -33 -65 -34 -72 -36 -112 -26 -24 6 -61
11 -83 11 -21 0 -68 9 -103 21 -37 12 -108 24 -172 28 -101 7 -110 9 -132 34
-20 24 -30 27 -84 27 -59 0 -61 -1 -81 -35 l-21 -35 -99 0 c-72 0 -109 -4
-131 -16 -25 -13 -38 -14 -68 -5 -55 16 -155 14 -170 -4 -37 -44 -81 -58 -209
-67 -143 -9 -135 -9 -257 -2 -70 4 -100 2 -129 -10 -21 -9 -49 -16 -64 -16
-14 0 -46 -14 -71 -30 -41 -27 -52 -30 -131 -30 -76 0 -90 -3 -130 -28 -24
-15 -53 -32 -64 -38 -16 -9 -21 -23 -23 -69 -3 -51 0 -61 24 -86 22 -23 25
-32 17 -56 -9 -26 -15 -28 -69 -33 -92 -8 -104 -19 -104 -91 0 -58 1 -60 35
-80 39 -23 55 -46 55 -79 0 -13 8 -24 20 -27 24 -6 26 -39 4 -64 -12 -13 -17
-48 -21 -138 -6 -132 -2 -123 -67 -133 -12 -2 -33 -31 -60 -83 -50 -98 -137
-190 -187 -200 -44 -8 -106 18 -178 75 -41 32 -68 46 -105 52 -28 4 -63 17
-78 28 -26 19 -40 20 -195 18 l-167 -3 -8 -35 c-4 -19 -10 -89 -14 -155 -4
-83 -12 -134 -25 -163 -10 -24 -22 -74 -25 -110 -5 -48 -13 -75 -30 -95 -13
-15 -27 -44 -31 -65 -11 -53 -8 -197 5 -260 7 -30 12 -140 12 -257 l0 -203
-26 -31 c-14 -17 -57 -47 -95 -67 -45 -24 -89 -58 -122 -94 -29 -31 -60 -59
-70 -63 -12 -4 -17 -17 -17 -42 0 -67 -37 -131 -104 -181 -33 -26 -80 -56
-103 -67 -25 -12 -47 -32 -53 -47 -11 -27 -61 -50 -107 -50 -34 0 -45 -24 -43
-97 3 -139 -31 -238 -101 -297 -29 -24 -37 -26 -133 -26 -93 0 -107 -2 -140
-25 -30 -21 -38 -22 -42 -10 -10 25 -118 20 -154 -7 -26 -19 -30 -28 -30 -70
0 -46 -1 -48 -29 -48 -24 0 -41 -13 -89 -66 -36 -40 -62 -62 -66 -55 -8 12
-135 15 -173 5 -21 -6 -23 -12 -23 -70 0 -54 3 -65 21 -74 18 -10 20 -17 14
-53 -4 -23 -18 -58 -31 -78 -29 -43 -34 -131 -8 -156 12 -13 14 -27 9 -61 -9
-60 -53 -178 -72 -194 -10 -8 -38 -12 -79 -9 l-63 3 -9 -34 c-7 -27 -14 -34
-38 -36 -16 -2 -38 -12 -49 -22 -11 -10 -33 -20 -50 -22 -25 -2 -31 -8 -33
-33 -2 -16 -11 -38 -19 -47 -13 -15 -15 -34 -9 -113 8 -116 -6 -158 -57 -180
-18 -7 -39 -25 -47 -39 -19 -36 -50 -54 -118 -69 -62 -15 -61 -13 -77 -118 -8
-54 -44 -101 -95 -126 -25 -12 -72 -44 -105 -72 -33 -28 -84 -69 -113 -92
l-53 -42 -102 -1 -102 -1 -5 -45 c-8 -66 -52 -134 -103 -162 -25 -13 -57 16
-57 52 0 35 -17 40 -130 40 -123 0 -211 -25 -288 -82 -34 -26 -79 -52 -100
-58 -46 -15 -77 -42 -109 -97 -27 -46 -32 -49 -119 -58 -33 -4 -65 -10 -70
-13 -31 -22 -84 -96 -84 -116 0 -13 -14 -40 -30 -61 -24 -30 -30 -47 -30 -87
0 -27 6 -59 12 -71 18 -31 37 -141 27 -148 -5 -3 -20 -20 -34 -39 -34 -46 -35
-123 -2 -173 12 -20 30 -38 39 -40 10 -3 23 -18 30 -34 24 -56 36 -63 107 -63
48 0 75 5 99 20 18 11 49 20 70 20 20 0 49 6 63 13 14 8 45 17 70 21 103 16
158 38 199 79 58 59 80 110 80 188 0 36 -5 70 -10 75 -8 8 -6 15 5 24 8 7 15
18 15 26 0 7 10 18 21 25 28 14 86 -2 126 -35 15 -13 42 -29 58 -37 20 -9 33
-25 40 -47 9 -31 11 -32 59 -32 27 0 65 6 84 12 33 13 35 12 67 -25 31 -36 34
-37 103 -37 69 0 71 0 99 -37 16 -21 44 -61 62 -90 17 -28 39 -57 47 -63 7 -7
14 -25 14 -41 0 -22 5 -29 19 -29 27 0 33 -23 32 -116 -2 -74 1 -84 24 -112
14 -16 25 -42 25 -56 0 -41 27 -85 55 -91 14 -3 36 -7 49 -10 19 -4 26 -13 31
-45 l7 -40 87 0 c99 0 121 12 121 66 0 50 28 127 60 166 l30 36 93 -5 c120 -7
137 1 137 63 0 60 11 78 59 98 30 12 42 23 46 43 4 16 11 47 17 70 6 24 8 68
6 100 -4 45 -10 61 -31 79 -21 18 -27 32 -27 64 0 24 -5 43 -13 46 -9 3 -12
24 -9 75 3 55 10 80 30 110 23 35 30 39 69 39 36 0 43 -3 43 -20 0 -18 7 -20
61 -20 56 0 65 3 100 35 22 19 43 35 49 35 18 0 38 56 50 140 16 110 43 165
65 130 3 -5 35 -10 70 -10 l64 0 28 52 c35 65 155 162 187 152 32 -10 43 -22
50 -55 l6 -30 77 3 78 3 3 41 c2 32 8 44 28 52 18 9 24 19 24 41 0 19 10 40
25 55 21 21 25 34 25 85 0 54 -2 60 -22 63 -16 2 -24 11 -26 28 -4 35 16 58
63 74 40 14 40 14 43 71 2 39 -2 64 -12 80 -15 22 -14 25 6 40 12 8 32 15 44
15 12 0 40 7 63 15 l41 14 0 -54 c0 -82 2 -85 77 -85 58 0 67 3 85 25 19 24
24 25 127 25 68 0 111 4 119 12 9 9 18 9 37 0 44 -20 170 -15 217 9 25 13 69
23 116 26 61 5 76 9 80 25 2 10 18 22 35 26 23 6 33 17 42 41 6 19 22 42 35
53 22 18 38 19 214 16 185 -3 193 -4 246 -30 79 -39 199 -138 200 -164 0 -12
3 -36 6 -53 6 -30 8 -31 62 -31 38 0 61 5 74 17 11 10 40 20 66 23 l47 5 3 57
c2 44 7 58 21 63 22 7 41 46 41 86 0 23 4 30 17 27 14 -3 17 -17 17 -93 1
-110 16 -141 73 -150 64 -11 123 -38 123 -57 0 -25 111 -78 175 -85 73 -8 121
3 150 34 20 22 25 24 30 11 5 -12 29 -17 108 -23 77 -5 113 -13 149 -31 26
-13 59 -24 73 -24 18 0 25 -5 25 -19 0 -11 5 -23 10 -26 6 -3 10 -44 10 -90
l0 -84 47 -38 c25 -21 67 -57 94 -79 59 -52 128 -76 206 -72 51 3 58 6 61 25
2 13 6 23 8 23 3 0 29 -18 58 -40 48 -37 58 -40 114 -40 57 0 67 4 126 44 35
24 80 46 100 50 41 8 44 14 49 121 3 47 13 92 31 135 15 36 39 94 54 130 36
88 74 126 173 174 64 31 85 46 87 64 3 18 10 22 36 22 19 0 39 7 47 16 7 8 29
24 49 34 36 18 37 22 43 82 5 52 10 66 31 83 14 12 26 30 26 41 0 11 14 33 30
49 27 26 30 35 30 92 l0 63 -52 0 c-68 0 -179 18 -195 32 -8 6 -13 32 -13 63
0 66 19 85 83 85 26 0 76 10 112 21 l65 22 0 55 c0 51 -3 58 -50 112 -35 41
-50 66 -50 86 0 56 29 136 83 232 30 53 57 114 60 136 5 30 21 54 77 111 38
40 70 81 70 90 0 16 11 17 129 10 l128 -7 6 29 c8 39 68 80 141 97 71 17 88
33 115 106 28 77 97 140 184 169 85 28 291 51 405 44 87 -5 92 -5 92 14 0 11
9 32 21 47 l20 26 127 -6 c125 -6 128 -6 207 25 44 17 120 58 169 91 49 33 93
60 97 60 25 0 304 -72 359 -93 83 -31 206 -92 246 -123 17 -12 70 -41 117 -62
47 -22 118 -61 159 -87 85 -56 354 -273 483 -392 81 -75 94 -83 129 -83 33 0
52 10 112 55 80 61 84 68 84 129 0 35 6 48 33 73 43 40 60 45 101 28 20 -8 60
-15 91 -15 35 0 65 -6 81 -16 16 -11 60 -19 122 -24 53 -4 117 -15 141 -24 49
-18 184 -22 225 -6 17 6 26 6 26 0 0 -6 14 -10 30 -10 17 0 47 -7 67 -15 19
-8 48 -15 64 -15 18 0 32 -7 39 -20 7 -13 21 -20 40 -20 l30 0 0 90 c0 89 0
90 -25 90 -16 0 -25 -6 -25 -16 0 -11 -5 -14 -17 -9 -10 4 -37 10 -60 12 -30
4 -44 11 -48 24 -5 16 -17 19 -70 19 -36 0 -85 -7 -110 -16 -38 -12 -53 -13
-78 -3 -18 6 -76 15 -129 19 -66 5 -106 13 -125 25 -16 11 -54 20 -97 23 -39
2 -83 11 -98 18 -32 16 -99 18 -183 4 -52 -8 -65 -15 -102 -54 -40 -41 -43
-49 -43 -98 0 -46 -4 -57 -29 -81 l-30 -28 -68 64 c-105 98 -380 319 -461 372
-41 26 -112 65 -159 87 -47 21 -100 50 -117 62 -40 31 -163 92 -246 123 -107
41 -387 103 -462 103 -82 0 -104 -8 -195 -71 -40 -27 -99 -62 -130 -77 -55
-25 -67 -26 -211 -27 l-154 0 -24 -28 c-13 -15 -24 -35 -24 -43 0 -11 -18 -14
-88 -14 -123 0 -335 -26 -409 -51 -87 -29 -156 -92 -184 -169 -27 -73 -44 -89
-115 -106 -67 -15 -132 -58 -141 -92 -5 -21 -10 -23 -39 -19 -18 3 -54 20 -78
37 -58 39 -84 34 -124 -29 -17 -26 -42 -53 -57 -61 -14 -7 -24 -18 -21 -24 2
-6 -16 -32 -41 -57 -31 -32 -45 -56 -50 -85 -3 -21 -30 -83 -60 -136 -68 -121
-82 -172 -90 -323 l-6 -120 27 -33 c15 -17 23 -32 17 -32 -5 0 -13 5 -16 10
-3 6 -30 10 -59 10 -50 0 -54 -2 -87 -42 l-34 -43 1 -144 c2 -107 5 -147 16
-157 7 -8 51 -19 96 -25 87 -13 101 -25 62 -57 -15 -13 -23 -35 -28 -82 l-7
-65 -51 -20 c-29 -12 -64 -35 -78 -52 -15 -17 -40 -34 -56 -38 -17 -4 -28 -10
-25 -15 3 -4 -21 -18 -52 -31 -101 -41 -140 -89 -196 -244 -14 -38 -35 -90
-46 -115 -15 -32 -21 -66 -21 -117 l0 -72 -35 -7 c-19 -3 -55 -19 -81 -35
l-46 -30 -41 31 c-22 16 -52 30 -65 30 -13 0 -32 5 -43 10 -14 8 -25 6 -44 -6
-15 -10 -38 -15 -60 -12 -25 3 -35 0 -37 -11 -2 -10 -18 -2 -54 30 -28 24 -67
58 -87 74 l-37 30 -1 85 c-1 47 4 98 10 113 6 16 11 53 11 83 l0 55 -57 -3
c-56 -3 -59 -4 -76 -41 -17 -37 -17 -37 -47 -22 -16 8 -50 15 -75 15 -43 0
-48 3 -58 30 -10 27 -15 30 -57 30 -25 -1 -92 -5 -150 -10 -90 -8 -108 -13
-123 -32 l-18 -22 -55 27 c-35 17 -54 33 -54 44 0 20 -58 47 -121 57 -55 10
-63 26 -69 139 l-5 101 -30 8 c-16 5 -94 9 -172 11 -137 2 -142 1 -167 -22
-14 -14 -26 -32 -26 -40 1 -21 64 -61 98 -62 19 -1 15 -4 -13 -8 -32 -5 -41
-11 -43 -29 -2 -12 -5 -22 -8 -22 -2 0 -35 25 -72 55 -37 31 -92 68 -122 83
l-55 27 -291 3 c-274 3 -292 2 -314 -16 -13 -11 -29 -34 -35 -52 -8 -24 -20
-35 -50 -46 -22 -7 -53 -14 -68 -14 -16 0 -40 -9 -54 -20 -14 -11 -35 -20 -47
-20 -11 -1 -32 -7 -46 -14 -21 -12 -29 -12 -62 5 -46 23 -145 26 -174 4 -15
-11 -38 -13 -105 -8 -59 4 -88 2 -93 -6 -4 -6 -14 -11 -22 -11 -10 0 -14 12
-14 45 0 54 -16 65 -91 65 -35 0 -69 -8 -103 -25 -28 -14 -73 -29 -100 -34
-74 -14 -91 -36 -93 -128 -1 -71 -4 -78 -26 -90 -35 -18 -49 -69 -47 -171 3
-154 3 -158 -26 -170 -17 -8 -31 -9 -44 -2 -25 13 -176 13 -202 -1 -46 -25
-142 -105 -157 -131 -15 -26 -20 -28 -86 -28 -110 0 -134 -27 -154 -170 l-12
-85 -40 3 c-26 3 -39 9 -39 19 0 8 -6 13 -13 10 -6 -2 -39 1 -72 8 -56 11 -63
10 -104 -12 -24 -12 -52 -23 -62 -23 -16 0 -19 -8 -19 -61 0 -55 -3 -64 -32
-92 -27 -27 -32 -41 -36 -92 -2 -33 -8 -65 -13 -71 -5 -6 -36 -15 -69 -18
l-60 -7 0 -54 0 -55 37 0 c24 0 56 -11 90 -32 50 -31 53 -34 53 -74 0 -33 5
-45 25 -58 45 -30 31 -78 -31 -105 -45 -20 -51 -32 -56 -106 l-3 -39 -103 3
-104 3 -38 -41 c-41 -43 -70 -117 -70 -178 0 -20 -4 -32 -10 -28 -5 3 -10 15
-10 25 0 13 -9 21 -25 25 -14 3 -36 7 -50 10 -28 6 -55 51 -55 93 0 15 -5 33
-12 40 -7 7 -11 36 -9 72 3 74 -31 170 -61 170 -13 0 -18 8 -18 29 0 17 -5 33
-11 36 -5 4 -35 45 -66 92 -67 102 -97 123 -174 123 -44 0 -60 4 -75 21 -33
36 -70 49 -141 49 -57 0 -70 3 -81 20 -7 11 -19 20 -26 20 -8 0 -28 11 -44 25
-53 45 -93 55 -211 55 -125 0 -139 -3 -152 -37 -5 -13 -22 -29 -39 -34 -29
-11 -30 -13 -30 -77 0 -48 5 -76 19 -98 l19 -32 -31 -38 c-18 -22 -41 -47 -52
-56 -22 -18 -103 -43 -175 -54 -25 -4 -49 -10 -55 -14 -5 -4 -32 -10 -60 -13
-27 -2 -57 -7 -65 -11 -11 -5 -19 3 -27 25 -7 17 -21 33 -32 36 -31 8 -26 40
9 58 29 15 30 18 30 81 0 39 -6 73 -14 87 -8 12 -20 44 -26 72 -9 40 -8 55 4
80 8 16 17 41 20 55 3 14 24 44 46 66 36 38 46 43 102 49 90 9 94 11 121 58
32 55 63 82 109 97 21 6 66 32 100 58 61 45 133 72 190 72 24 0 28 -4 28 -28
0 -17 10 -37 23 -50 20 -19 35 -22 104 -22 45 0 94 5 110 11 61 23 123 108
123 169 l0 30 88 0 c80 0 92 3 134 29 25 16 70 51 99 78 67 60 112 92 163 118
47 23 83 72 91 124 16 105 15 103 78 118 66 14 92 30 117 68 9 14 32 34 51 43
47 23 68 88 69 209 0 50 5 95 10 98 6 3 10 19 10 36 0 25 4 29 27 29 15 0 36
9 48 20 16 15 41 22 101 26 76 7 81 9 116 46 61 66 89 159 98 318 4 89 14 161
28 210 12 41 22 94 22 118 l0 42 66 0 c63 0 68 2 100 35 20 21 34 30 37 22 3
-8 20 -4 59 16 30 15 61 27 68 27 7 0 11 3 7 6 -3 4 0 19 8 35 8 15 15 39 15
54 0 23 3 25 45 25 46 0 86 16 138 53 23 18 40 20 115 18 125 -3 166 17 219
106 27 46 41 112 51 238 6 70 10 80 27 83 69 10 104 25 115 51 6 16 28 36 53
48 23 11 70 41 103 67 67 50 104 114 104 181 0 25 5 38 18 42 9 4 40 32 69 63
33 36 77 70 122 94 38 20 81 50 95 67 23 27 26 40 27 117 1 48 3 168 5 267 3
129 -1 205 -11 269 -18 103 -11 137 35 181 27 26 30 34 30 96 0 36 6 82 14
100 7 19 16 88 20 154 4 66 10 136 14 155 l8 35 67 3 c55 2 72 -1 95 -18 15
-11 50 -24 78 -28 37 -6 64 -20 105 -52 87 -69 123 -80 256 -80 85 0 124 4
149 16 50 24 113 99 160 190 27 51 48 80 60 82 66 10 64 8 64 78 0 41 4 63 10
59 13 -8 26 24 44 102 8 37 10 65 5 69 -5 3 -9 54 -9 114 0 104 -1 109 -22
112 -16 2 -24 12 -29 35 -6 31 -5 32 30 35 53 4 66 38 66 165 l0 102 40 25
c34 23 50 26 125 26 78 0 89 3 130 30 25 16 57 30 72 30 15 0 38 5 52 11 22
10 29 8 56 -15 26 -22 41 -26 90 -26 44 0 64 5 77 18 30 30 72 40 189 45 94 3
116 7 148 26 33 21 49 23 132 22 75 -2 102 2 140 18 42 19 48 19 74 6 16 -8
56 -15 89 -15 50 0 62 3 75 22 15 20 23 22 107 19 60 -2 119 -11 172 -27 44
-13 99 -24 121 -24 53 0 119 -18 129 -36 6 -10 28 -14 72 -14 57 0 75 5 148
44 l83 43 39 -20 c21 -10 63 -28 92 -38 30 -10 66 -27 81 -37 34 -24 87 -42
123 -42 21 0 35 -10 60 -44 50 -71 61 -73 349 -81 292 -8 351 -2 481 51 56 22
104 34 135 34 27 1 67 7 89 15 51 19 162 19 195 0 14 -8 46 -14 73 -15 l47 0
0 -46 0 -47 68 5 c96 8 118 21 142 85 11 30 29 72 40 93 16 32 20 59 20 142 0
102 0 103 -34 146 -37 46 -37 43 -15 171 5 30 9 72 9 93 0 38 0 38 39 38 48 0
51 6 51 120 l0 89 48 3 47 3 -1 60 c-1 33 -5 74 -9 90 -6 29 -5 31 39 43 26 6
64 12 86 12 33 0 47 7 78 38 47 47 72 99 72 149 0 42 14 63 41 63 9 0 36 26
60 57 61 81 167 182 235 223 46 28 73 36 129 41 88 9 145 28 145 51 0 9 5 20
10 23 13 8 121 168 142 210 9 17 18 64 21 105 2 43 9 76 16 78 30 10 72 58 96
107 14 30 37 62 51 72 48 33 126 107 139 133 8 15 23 61 33 104 11 43 28 86
38 97 18 21 189 139 201 139 5 0 16 12 26 25 l18 25 -114 0 c-77 0 -117 -4
-126 -12 -11 -10 -14 -10 -18 0 -3 7 -22 12 -44 12 l-39 0 0 -46z"/>
<path d="M8290 4371 c0 -6 4 -13 10 -16 6 -3 7 1 4 9 -7 18 -14 21 -14 7z"/>
<path d="M7680 3605 c7 -9 15 -13 17 -11 7 7 -7 26 -19 26 -6 0 -6 -6 2 -15z"/>
</g>
</svg>
